<svg xmlns="http://www.w3.org/2000/svg" viewBox="0 0 960 600" role="img" aria-labelledby="title desc">
  <title id="title">Trading graph preview</title>
  <desc id="desc">Dark trading dashboard preview with candlesticks, a market line, and performance panels.</desc>
  <defs>
    <linearGradient id="panel" x1="0" x2="1" y1="0" y2="1">
      <stop offset="0" stop-color="#151b26"/>
      <stop offset="1" stop-color="#0a0f17"/>
    </linearGradient>
    <linearGradient id="area" x1="0" x2="0" y1="0" y2="1">
      <stop offset="0" stop-color="#facc15" stop-opacity=".42"/>
      <stop offset=".58" stop-color="#22c55e" stop-opacity=".16"/>
      <stop offset="1" stop-color="#22c55e" stop-opacity="0"/>
    </linearGradient>
    <filter id="softGlow" x="-30%" y="-30%" width="160%" height="160%">
      <feGaussianBlur stdDeviation="8" result="blur"/>
      <feColorMatrix in="blur" values="1 0 0 0 0.98 0 1 0 0 0.80 0 0 1 0 0.08 0 0 0 .8 0"/>
      <feMerge>
        <feMergeNode/>
        <feMergeNode in="SourceGraphic"/>
      </feMerge>
    </filter>
    <pattern id="grid" width="64" height="48" patternUnits="userSpaceOnUse">
      <path d="M64 0H0v48" fill="none" stroke="#263241" stroke-opacity=".55" stroke-width="1"/>
    </pattern>
  </defs>

  <rect width="960" height="600" rx="34" fill="url(#panel)"/>
  <rect x="34" y="34" width="892" height="532" rx="28" fill="#0f141d" stroke="#263241" stroke-opacity=".9"/>

  <g opacity=".95">
    <rect x="62" y="64" width="224" height="84" rx="18" fill="#151d29" stroke="#263241"/>
    <rect x="318" y="64" width="224" height="84" rx="18" fill="#151d29" stroke="#263241"/>
    <rect x="574" y="64" width="224" height="84" rx="18" fill="#151d29" stroke="#263241"/>
    <circle cx="94" cy="106" r="14" fill="#facc15"/>
    <circle cx="350" cy="106" r="14" fill="#22c55e"/>
    <circle cx="606" cy="106" r="14" fill="#38bdf8"/>
    <rect x="124" y="88" width="86" height="10" rx="5" fill="#64748b"/>
    <rect x="124" y="112" width="128" height="15" rx="7.5" fill="#f8fafc"/>
    <rect x="380" y="88" width="95" height="10" rx="5" fill="#64748b"/>
    <rect x="380" y="112" width="118" height="15" rx="7.5" fill="#f8fafc"/>
    <rect x="636" y="88" width="82" height="10" rx="5" fill="#64748b"/>
    <rect x="636" y="112" width="132" height="15" rx="7.5" fill="#f8fafc"/>
  </g>

  <rect x="62" y="178" width="836" height="314" rx="22" fill="#0b111a" stroke="#263241"/>
  <rect x="88" y="204" width="784" height="252" fill="url(#grid)"/>
  <path d="M88 431C134 404 162 392 206 403C249 414 284 360 326 368C369 377 401 319 445 327C489 335 518 292 559 300C602 309 637 259 681 272C724 285 751 231 790 241C827 251 847 218 872 203V456H88Z" fill="url(#area)"/>
  <path d="M88 431C134 404 162 392 206 403C249 414 284 360 326 368C369 377 401 319 445 327C489 335 518 292 559 300C602 309 637 259 681 272C724 285 751 231 790 241C827 251 847 218 872 203" fill="none" stroke="#facc15" stroke-width="6" stroke-linecap="round" stroke-linejoin="round" filter="url(#softGlow)"/>
  <path d="M88 432C140 434 177 421 219 415C263 408 299 391 342 385C396 376 425 354 468 349C521 342 550 330 590 324C652 315 706 295 746 281C795 264 834 239 872 220" fill="none" stroke="#22c55e" stroke-width="3" stroke-linecap="round" stroke-dasharray="12 12" opacity=".86"/>

  <g stroke-linecap="round">
    <g stroke="#22c55e" fill="#22c55e">
      <line x1="152" y1="376" x2="152" y2="438" stroke-width="4"/>
      <rect x="139" y="392" width="26" height="32" rx="5"/>
      <line x1="254" y1="350" x2="254" y2="414" stroke-width="4"/>
      <rect x="241" y="364" width="26" height="36" rx="5"/>
      <line x1="462" y1="292" x2="462" y2="358" stroke-width="4"/>
      <rect x="449" y="309" width="26" height="31" rx="5"/>
      <line x1="666" y1="236" x2="666" y2="303" stroke-width="4"/>
      <rect x="653" y="251" width="26" height="34" rx="5"/>
      <line x1="812" y1="205" x2="812" y2="274" stroke-width="4"/>
      <rect x="799" y="220" width="26" height="32" rx="5"/>
    </g>
    <g stroke="#ef4444" fill="#ef4444">
      <line x1="204" y1="382" x2="204" y2="442" stroke-width="4"/>
      <rect x="191" y="398" width="26" height="31" rx="5"/>
      <line x1="356" y1="327" x2="356" y2="391" stroke-width="4"/>
      <rect x="343" y="343" width="26" height="35" rx="5"/>
      <line x1="566" y1="272" x2="566" y2="336" stroke-width="4"/>
      <rect x="553" y="286" width="26" height="36" rx="5"/>
      <line x1="738" y1="228" x2="738" y2="293" stroke-width="4"/>
      <rect x="725" y="244" width="26" height="32" rx="5"/>
    </g>
  </g>

  <g opacity=".96">
    <rect x="62" y="516" width="178" height="24" rx="12" fill="#1d2735"/>
    <rect x="264" y="516" width="126" height="24" rx="12" fill="#facc15"/>
    <rect x="414" y="516" width="218" height="24" rx="12" fill="#22c55e"/>
    <rect x="656" y="516" width="114" height="24" rx="12" fill="#38bdf8"/>
  </g>
</svg>
